<svg xmlns="http://www.w3.org/2000/svg" viewBox="0 0 512 512" role="img" aria-label="Freighter">
  <defs>
    <linearGradient id="fbg" x1="0" y1="0" x2="0" y2="1">
      <stop offset="0" stop-color="#6f5bd8"/>
      <stop offset="1" stop-color="#5e49cf"/>
    </linearGradient>
  </defs>
  <rect width="512" height="512" rx="112" fill="url(#fbg)"/>
  <!-- upper key: bow at left, shaft running right, two teeth downward -->
  <g fill="#fff">
    <path d="M181 118c-33 0-60 27-60 60s27 60 60 60c26 0 48-16 56-39h84v-24h-26v-21h-24v21h-34c-8-23-30-39-56-39zm0 34c14 0 26 12 26 26s-12 26-26 26-26-12-26-26 12-26 26-26z"/>
    <!-- lower key: bow at right, shaft running left, two teeth upward -->
    <path d="M331 274c-26 0-48 16-56 39h-84v24h26v21h24v-21h34c8 23 30 39 56 39 33 0 60-27 60-60s-27-60-60-60zm0 34c14 0 26 12 26 26s-12 26-26 26-26-12-26-26 12-26 26-26z"/>
  </g>
</svg>
